STARTFONT 2.1
COMMENT
COMMENT Converted from OpenType font "hartin.ttf" by "otf2bdf3-win32\otf2bdf3\otf2bdf.exe 3.0".
COMMENT
FONT -FreeType-Hartin2-Medium-R-Normal--33-240-100-100-P-146-ISO10646-1
SIZE 24 100 100
FONTBOUNDINGBOX 22 31 -1 -8
STARTPROPERTIES 19
FOUNDRY "FreeType"
FAMILY_NAME "Hartin2"
WEIGHT_NAME "Medium"
SLANT "R"
SETWIDTH_NAME "Normal"
ADD_STYLE_NAME ""
PIXEL_SIZE 33
POINT_SIZE 240
RESOLUTION_X 100
RESOLUTION_Y 100
SPACING "P"
AVERAGE_WIDTH 146
CHARSET_REGISTRY "ISO10646"
CHARSET_ENCODING "1"
FONT_ASCENT 25
FONT_DESCENT 8
COPYRIGHT "Harting 2 ¨ 1992 by D. Rakowski. All Rights Reserved."
_OTF_FONTFILE "hartin.ttf"
_OTF_PSNAME "Hartin2 Regular"
ENDPROPERTIES
CHARS 87
STARTCHAR 0020
ENCODING 32
SWIDTH 600 0
DWIDTH 20 0
BBX 0 0 0 0
BITMAP
ENDCHAR
STARTCHAR 0021
ENCODING 33
SWIDTH 570 0
DWIDTH 19 0
BBX 5 21 7 -1
BITMAP
A0
F0
D0
D0
50
E0
40
70
60
60
60
70
50
20
00
00
E0
F8
F8
F8
F8
ENDCHAR
STARTCHAR 0022
ENCODING 34
SWIDTH 600 0
DWIDTH 20 0
BBX 9 10 5 12
BITMAP
0300
FF00
BF80
F780
FF80
7F00
7B00
7700
4200
4300
ENDCHAR
STARTCHAR 0024
ENCODING 36
SWIDTH 600 0
DWIDTH 20 0
BBX 15 27 3 -4
BITMAP
0980
1FE0
38F0
4070
50F8
4C78
41E0
3370
0370
0070
0478
0048
0004
0402
6402
C082
F0CE
D45A
B8F8
7D78
3FF0
1FC0
04C0
04C0
04C0
04C0
04C0
ENDCHAR
STARTCHAR 0026
ENCODING 38
SWIDTH 570 0
DWIDTH 19 0
BBX 17 23 1 0
BITMAP
018000
0F8000
3FC000
304000
21C000
204000
204000
2F8500
358780
1C0680
0C3B80
3C1000
346000
054000
45C000
47C000
058000
018000
83C180
85C180
77B980
5EAB80
3E1600
ENDCHAR
STARTCHAR 0027
ENCODING 39
SWIDTH 600 0
DWIDTH 20 0
BBX 6 10 6 11
BITMAP
78
78
B8
7C
78
30
38
30
30
20
ENDCHAR
STARTCHAR 0028
ENCODING 40
SWIDTH 600 0
DWIDTH 20 0
BBX 7 29 7 -7
BITMAP
0E
1E
18
18
38
10
30
70
30
70
A0
E0
E0
E0
E0
60
E0
60
60
F0
70
70
78
38
38
38
1C
0C
0E
ENDCHAR
STARTCHAR 0029
ENCODING 41
SWIDTH 570 0
DWIDTH 19 0
BBX 6 28 6 -7
BITMAP
C0
40
60
30
30
30
3C
38
0C
0C
0C
0C
0C
0C
0C
0C
0C
0C
0C
0C
0C
0C
08
18
30
38
38
30
ENDCHAR
STARTCHAR 002C
ENCODING 44
SWIDTH 570 0
DWIDTH 19 0
BBX 5 10 7 -4
BITMAP
30
78
F8
78
78
38
38
78
F0
F0
ENDCHAR
STARTCHAR 002D
ENCODING 45
SWIDTH 630 0
DWIDTH 21 0
BBX 12 4 5 7
BITMAP
FFF0
B7F0
ED50
7730
ENDCHAR
STARTCHAR 002E
ENCODING 46
SWIDTH 600 0
DWIDTH 20 0
BBX 5 4 7 1
BITMAP
78
78
78
F8
ENDCHAR
STARTCHAR 002F
ENCODING 47
SWIDTH 600 0
DWIDTH 20 0
BBX 14 22 3 0
BITMAP
000C
0018
0030
0020
0020
0020
0060
0080
01C0
0140
0200
0300
0200
0700
0E00
0800
1C00
1400
1800
3800
7800
E000
ENDCHAR
STARTCHAR 0030
ENCODING 48
SWIDTH 600 0
DWIDTH 20 0
BBX 16 22 2 0
BITMAP
1FF0
3FF0
3CBC
781C
700E
C006
E006
E002
E007
C003
C007
C003
C002
C006
E006
7006
7006
780E
380C
1FBC
0FF8
03C0
ENDCHAR
STARTCHAR 0031
ENCODING 49
SWIDTH 570 0
DWIDTH 19 0
BBX 18 22 1 0
BITMAP
FFE000
3FE000
0FE000
00E000
01E000
00A000
00E000
00E000
00A000
00E000
00E000
00E000
00E000
002000
006000
00A000
006000
00E000
00F000
0DFC00
3FFA00
3FFFC0
ENDCHAR
STARTCHAR 0032
ENCODING 50
SWIDTH 600 0
DWIDTH 20 0
BBX 17 22 1 1
BITMAP
052000
1FF000
787C00
601400
F00C00
700600
700400
F00400
000C00
000800
003800
007800
01F000
078000
0A8000
0E0700
080380
180780
300780
7C0F80
6FFC00
04B400
ENDCHAR
STARTCHAR 0033
ENCODING 51
SWIDTH 570 0
DWIDTH 19 0
BBX 16 22 2 1
BITMAP
31B0
AFF0
B0F0
E020
60E0
A0A0
41E0
01E0
01E0
03F8
0034
002E
000F
0005
E006
E007
E004
E006
C008
605C
6CD0
1B20
ENDCHAR
STARTCHAR 0034
ENCODING 52
SWIDTH 570 0
DWIDTH 19 0
BBX 16 22 2 -1
BITMAP
0040
00C0
03C0
03C0
03C0
03C0
0D40
0CC0
0840
10C0
2040
60C0
E040
E1C0
FBFE
FB63
00E2
0040
0040
03E0
0370
0DFC
ENDCHAR
STARTCHAR 0035
ENCODING 53
SWIDTH 570 0
DWIDTH 19 0
BBX 16 22 1 0
BITMAP
005C
1FFC
1800
1C00
1C00
1800
1FE0
18D4
1FFC
180C
000A
0003
0001
3003
7001
3003
7003
B006
701E
347E
0FBC
07F0
ENDCHAR
STARTCHAR 0036
ENCODING 54
SWIDTH 600 0
DWIDTH 20 0
BBX 16 22 2 0
BITMAP
07C0
1DF8
3038
703C
403C
6008
E3D0
EAC0
FFF8
F238
F04C
F04C
E03C
F00E
E007
A002
700E
341C
7F7C
3FF8
0750
0770
ENDCHAR
STARTCHAR 0037
ENCODING 55
SWIDTH 600 0
DWIDTH 20 0
BBX 15 21 3 0
BITMAP
FFBE
FBFE
FFFC
F3FC
6010
E078
C0F0
0020
01E0
01C0
0180
0180
0300
0300
0700
0600
0700
0700
0700
0700
0700
ENDCHAR
STARTCHAR 0038
ENCODING 56
SWIDTH 600 0
DWIDTH 20 0
BBX 16 22 2 0
BITMAP
1FF0
3EF8
7E70
703C
E01C
E01C
F01C
73F4
7FF8
3FFC
7CBC
7C5C
5004
F006
E00F
4004
F007
601A
700E
383C
38D8
0FF8
ENDCHAR
STARTCHAR 0039
ENCODING 57
SWIDTH 600 0
DWIDTH 20 0
BBX 16 22 3 1
BITMAP
1FC0
37F8
7358
E008
E00E
A006
E005
A007
E01F
E007
301F
7C65
0BE7
0F83
0007
2006
7804
381C
3F78
3FE0
0FE0
0780
ENDCHAR
STARTCHAR 003A
ENCODING 58
SWIDTH 600 0
DWIDTH 20 0
BBX 5 15 7 1
BITMAP
70
F0
F8
E0
70
00
00
00
00
00
00
78
78
78
F8
ENDCHAR
STARTCHAR 003B
ENCODING 59
SWIDTH 600 0
DWIDTH 20 0
BBX 6 19 7 -3
BITMAP
78
F8
78
10
00
00
00
00
00
10
78
F8
58
7C
3C
58
78
F0
F0
ENDCHAR
STARTCHAR 003F
ENCODING 63
SWIDTH 600 0
DWIDTH 20 0
BBX 14 22 3 0
BITMAP
1FC0
3FF0
60F4
603C
603C
E0BC
FC3C
78BC
2038
01F0
00A0
01E0
0180
0780
0700
0700
0700
0300
0780
0780
0F80
0300
ENDCHAR
STARTCHAR 0041
ENCODING 65
SWIDTH 600 0
DWIDTH 20 0
BBX 18 22 1 1
BITMAP
018000
018000
01C000
018000
038000
07C000
02C000
0E4000
082000
0E2000
082000
1C1000
282000
1E3000
1FF800
100000
300000
100000
300200
3C0200
740F00
FE3FC0
ENDCHAR
STARTCHAR 0042
ENCODING 66
SWIDTH 570 0
DWIDTH 19 0
BBX 17 23 1 0
BITMAP
498000
FFE000
386C00
200000
100700
000200
000E00
180E00
180C00
19FA00
19FE00
100300
100500
100100
100100
100180
100100
100100
100380
100280
7DFD00
37FA00
080000
ENDCHAR
STARTCHAR 0043
ENCODING 67
SWIDTH 570 0
DWIDTH 19 0
BBX 15 22 2 0
BITMAP
0FC0
0EC0
17FC
707C
700C
4004
601C
E004
4000
4000
C000
4000
4000
6004
6004
6006
700C
701C
141C
1D58
0FF8
0040
ENDCHAR
STARTCHAR 0044
ENCODING 68
SWIDTH 600 0
DWIDTH 20 0
BBX 19 22 0 1
BITMAP
7FFE00
1FAF00
1C1500
1C0500
0C03C0
0C00E0
0C0040
080060
080060
080020
1E0060
0C0040
0C0000
0C0060
0C0060
040040
0C0040
040040
0C8080
040380
7FEC00
FFE800
ENDCHAR
STARTCHAR 0045
ENCODING 69
SWIDTH 570 0
DWIDTH 19 0
BBX 19 22 0 0
BITMAP
FFFFC0
FFF3C0
1801C0
3800C0
1C01C0
1010C0
1870C0
187000
1FD000
1B7000
1FF800
1C7800
181000
181000
1800C0
1800E0
3800C0
1800C0
1800E0
7E3FE0
FFFBC0
7E7FE0
ENDCHAR
STARTCHAR 0046
ENCODING 70
SWIDTH 570 0
DWIDTH 19 0
BBX 17 22 2 0
BITMAP
FFFF00
FC8300
180000
380000
381080
181000
193800
191000
1FF000
1DF000
1A1000
1C1000
180000
180000
100000
1C0000
100000
0C0000
0C0000
0D0000
7FC000
758000
ENDCHAR
STARTCHAR 0047
ENCODING 71
SWIDTH 600 0
DWIDTH 20 0
BBX 18 22 1 0
BITMAP
030000
1FF400
3CF000
601C00
400C00
C00E00
C00C00
C00C00
C00C00
800400
C0FFC0
C0CFC0
803E00
400E00
401400
400C00
700C00
600C00
500E00
1F3E00
0FEC00
0FEC00
ENDCHAR
STARTCHAR 0048
ENCODING 72
SWIDTH 600 0
DWIDTH 20 0
BBX 20 22 0 1
BITMAP
FE1FF0
F80BC0
200580
2001C0
500180
300180
100380
3802C0
3FFF80
1AD980
1D3F80
100180
300040
300080
3000C0
100080
300180
300080
3001C0
3103E0
FF8FE0
FF8FE0
ENDCHAR
STARTCHAR 0049
ENCODING 73
SWIDTH 600 0
DWIDTH 20 0
BBX 15 22 3 -1
BITMAP
FFFE
7FF8
0600
0600
0200
0300
01C0
0200
0140
02C0
02C0
0200
0300
01C0
0180
01C0
0200
01C0
03E0
07EC
7FFC
FFFE
ENDCHAR
STARTCHAR 004A
ENCODING 74
SWIDTH 600 0
DWIDTH 20 0
BBX 16 22 2 0
BITMAP
00FD
000E
001F
000E
000C
000C
000C
000C
000C
000C
000C
000C
000C
600C
E004
E008
E008
6008
6018
3078
3FD0
0C20
ENDCHAR
STARTCHAR 004B
ENCODING 75
SWIDTH 600 0
DWIDTH 20 0
BBX 20 22 0 1
BITMAP
DC0FE0
FF1FC0
700E00
100E00
380C00
101800
103800
302000
102000
11E000
13B000
1F1800
1E3800
1C0800
140C00
100600
100600
100300
100300
7807C0
FD9FF0
D40FC0
ENDCHAR
STARTCHAR 004C
ENCODING 76
SWIDTH 630 0
DWIDTH 21 0
BBX 18 22 1 -1
BITMAP
FFC000
7FC000
0C0000
1C0000
0C0000
1C0000
0C0000
0C0000
1C0000
0C0000
0C0000
1C0040
1C00C0
0C0040
1C0040
0C0040
0C00C0
0C0240
0C00C0
0C03C0
3FFFC0
FFFFC0
ENDCHAR
STARTCHAR 004D
ENCODING 77
SWIDTH 570 0
DWIDTH 19 0
BBX 19 22 0 -1
BITMAP
E000C0
7001C0
B00080
780380
780180
7C0380
7C0680
640EC0
260EC0
6309C0
A10C40
611980
210080
61A080
60E0C0
606140
6060C0
206000
6060C0
6061E0
FC05E0
F807E0
ENDCHAR
STARTCHAR 004E
ENCODING 78
SWIDTH 600 0
DWIDTH 20 0
BBX 20 22 0 1
BITMAP
E00670
3C01C0
1C01C0
1C0040
1F0080
0F0040
0F8040
09C040
084040
183040
1030C0
081880
100C80
180CC0
1805C0
1803C0
0807C0
180140
1801C0
1E03C0
FF83C0
BF8000
ENDCHAR
STARTCHAR 004F
ENCODING 79
SWIDTH 600 0
DWIDTH 20 0
BBX 16 22 3 0
BITMAP
1FF0
3C10
3818
7006
6006
4006
4006
E006
C003
C002
C003
C003
C002
E007
E007
E006
7006
380C
380C
1FF8
0FF0
0380
ENDCHAR
STARTCHAR 0050
ENCODING 80
SWIDTH 570 0
DWIDTH 19 0
BBX 17 23 1 0
BITMAP
FFFE00
3C0700
3C0780
180180
080180
080180
1C0180
0C0180
1E0780
0F1F00
0FFE00
1FFC00
0E0000
1E0000
1C0000
1E0000
1E0000
0C0000
080000
0F0000
7F0000
7F4000
008000
ENDCHAR
STARTCHAR 0051
ENCODING 81
SWIDTH 600 0
DWIDTH 20 0
BBX 18 26 2 -4
BITMAP
07C000
3FF000
3E3800
781800
700800
401400
C00E00
C00600
C00000
C00700
C00700
C00300
C00700
C00200
C00600
CFCE00
FCEE00
703800
303800
343800
1F7800
07F800
001E80
000A80
000FC0
000380
ENDCHAR
STARTCHAR 0052
ENCODING 82
SWIDTH 600 0
DWIDTH 20 0
BBX 19 22 0 0
BITMAP
FE4000
7FFE00
300300
300300
200100
000100
180300
000400
181E00
1FFC00
183000
080000
080800
080800
180800
080800
080E00
080E00
180F00
1C07E0
1E06E0
3F07E0
ENDCHAR
STARTCHAR 0053
ENCODING 83
SWIDTH 600 0
DWIDTH 20 0
BBX 15 22 2 -1
BITMAP
3FF8
7CF8
7878
5018
E018
F018
F000
3000
3800
0FF0
02F8
0194
000E
6006
6006
4006
6006
7006
7814
7A7C
69BC
51F8
ENDCHAR
STARTCHAR 0054
ENCODING 84
SWIDTH 630 0
DWIDTH 21 0
BBX 16 22 3 1
BITMAP
7FBC
7386
5185
6187
4107
4105
C187
C180
41C0
00C0
0080
0080
0080
00C0
0080
00C0
00C0
00C0
00C0
00C0
03C0
03F0
ENDCHAR
STARTCHAR 0055
ENCODING 85
SWIDTH 600 0
DWIDTH 20 0
BBX 16 22 3 0
BITMAP
F07F
C00A
E00E
C00E
C006
C006
800A
C00E
C006
A002
C006
C006
8006
E006
A006
6006
6006
6008
600C
2018
1E78
1FE0
ENDCHAR
STARTCHAR 0056
ENCODING 86
SWIDTH 630 0
DWIDTH 21 0
BBX 17 22 2 0
BITMAP
FF3F80
580600
380700
180700
180400
180600
080C00
0C0C00
0A0C00
060C00
060800
020000
021800
033800
039800
01F000
01F000
00F000
00F000
007000
00F000
002000
ENDCHAR
STARTCHAR 0057
ENCODING 87
SWIDTH 630 0
DWIDTH 21 0
BBX 20 21 0 1
BITMAP
FE23D0
1E2370
1C2060
142060
183040
106040
187040
0C7840
146840
0C49C0
06CD40
04CB80
07CFC0
078700
038300
038380
038300
038300
038300
038300
038300
ENDCHAR
STARTCHAR 0058
ENCODING 88
SWIDTH 570 0
DWIDTH 19 0
BBX 18 22 0 0
BITMAP
FFFF00
7E5600
043C00
041000
0E3800
044000
03A000
01E000
00E000
01E000
01E000
01E000
03F800
043800
040800
000800
0C0E00
080200
380300
380300
3A0B80
FF3FC0
ENDCHAR
STARTCHAR 0059
ENCODING 89
SWIDTH 600 0
DWIDTH 20 0
BBX 17 22 1 0
BITMAP
FE1F80
6C0600
380600
080400
0C0C00
040400
041C00
031800
017000
01F000
00F000
006000
00E000
006000
004000
006000
006000
006000
006000
006800
07FC00
037800
ENDCHAR
STARTCHAR 005A
ENCODING 90
SWIDTH 600 0
DWIDTH 20 0
BBX 15 22 2 -1
BITMAP
7FFC
703C
2018
6018
2030
6030
0020
00E0
0080
0100
0100
0100
0700
0400
0E02
0802
3802
3802
3002
7902
EB0E
3FFE
ENDCHAR
STARTCHAR 0061
ENCODING 97
SWIDTH 600 0
DWIDTH 20 0
BBX 16 16 2 1
BITMAP
1FE0
3BF0
7070
6070
2070
2070
13F0
13F8
FC18
F010
E020
E030
E078
E079
7FFF
3E1E
ENDCHAR
STARTCHAR 0062
ENCODING 98
SWIDTH 600 0
DWIDTH 20 0
BBX 19 22 0 0
BITMAP
F80000
D80000
380000
080000
040000
060000
061C00
07FF00
070380
0600C0
0600C0
060060
040040
040060
060040
040040
0600C0
0601C0
070080
07C780
03DF00
003C00
ENDCHAR
STARTCHAR 0063
ENCODING 99
SWIDTH 600 0
DWIDTH 20 0
BBX 13 16 4 0
BITMAP
0F90
3FF0
2E70
7C18
6018
6018
E000
4000
E000
4000
6000
6000
7010
3870
1FF0
07E0
ENDCHAR
STARTCHAR 0064
ENCODING 100
SWIDTH 600 0
DWIDTH 20 0
BBX 18 22 1 -1
BITMAP
07FC00
07FC00
001C00
000400
000800
000600
0F9E00
0D0C00
1AFC00
201C00
200C00
600C00
200400
E00E00
E00400
E00E00
600600
200400
600E00
200F00
1DAF80
1FE7C0
ENDCHAR
STARTCHAR 0065
ENCODING 101
SWIDTH 570 0
DWIDTH 19 0
BBX 14 16 3 0
BITMAP
1FE0
1EF0
2010
6030
A018
E01C
F8D8
DFFC
E000
8000
E00C
2008
7018
1010
1FF0
07C0
ENDCHAR
STARTCHAR 0066
ENCODING 102
SWIDTH 600 0
DWIDTH 20 0
BBX 17 22 2 0
BITMAP
01FA00
019F00
030180
030080
040080
070000
1F0000
FFF800
370000
0F0000
070000
030000
070000
070000
030000
020000
060000
060000
070000
37C800
3FF800
3AF000
ENDCHAR
STARTCHAR 0067
ENCODING 103
SWIDTH 600 0
DWIDTH 20 0
BBX 18 23 2 -7
BITMAP
0F8F80
0FD280
1A7FC0
783F00
701000
701C00
700800
701C00
780800
783000
7EF000
7AE000
206000
69F000
7BFC00
781300
000100
800280
800100
400100
C00080
000F00
0BFB00
ENDCHAR
STARTCHAR 0068
ENCODING 104
SWIDTH 630 0
DWIDTH 21 0
BBX 22 22 -1 1
BITMAP
FC0000
7E0000
180000
0C0000
080000
0F0000
062000
06FE00
0F2200
050380
0701C0
060080
0601C0
0E0040
040180
040080
0600C0
0E01C0
040080
1F27F8
1F27F8
7FE7EC
ENDCHAR
STARTCHAR 0069
ENCODING 105
SWIDTH 570 0
DWIDTH 19 0
BBX 14 22 3 0
BITMAP
0780
0780
0780
0200
0000
0680
DF00
BF80
1F80
0680
0380
0580
0380
0380
0380
0180
0180
07C0
0FE8
0DF8
7FFC
7FB8
ENDCHAR
STARTCHAR 006A
ENCODING 106
SWIDTH 600 0
DWIDTH 20 0
BBX 15 28 2 -6
BITMAP
0018
003C
005C
003C
0000
0000
0004
0FFC
0EE4
0F1C
000C
0004
0004
000C
000C
000E
000C
0006
0006
0006
0002
2006
700E
B00A
7C0C
1E78
1FE0
07C0
ENDCHAR
STARTCHAR 006B
ENCODING 107
SWIDTH 600 0
DWIDTH 20 0
BBX 20 22 0 0
BITMAP
A00000
FC0000
2C0000
0C0000
040000
040000
040000
047FC0
041800
041C00
041000
040000
044000
04C000
07F000
071000
000000
040C00
040CC0
040F40
3F9FF0
010080
ENDCHAR
STARTCHAR 006C
ENCODING 108
SWIDTH 630 0
DWIDTH 21 0
BBX 15 22 3 0
BITMAP
FF80
0780
0380
0380
0380
0380
0300
0300
0380
0380
0380
0180
0380
0380
0380
03C0
0300
03C0
13C0
F7E0
FFFE
3FFE
ENDCHAR
STARTCHAR 006D
ENCODING 109
SWIDTH 600 0
DWIDTH 20 0
BBX 20 16 0 -1
BITMAP
FFCF80
FFFFC0
78E9C0
F071E0
3061E0
306060
3030E0
3060E0
306060
307060
306060
306060
307060
78D960
FCF9F0
BD71E0
ENDCHAR
STARTCHAR 006E
ENCODING 110
SWIDTH 570 0
DWIDTH 19 0
BBX 19 16 0 1
BITMAP
787800
FDEE00
3F8E00
3F8600
2F0200
1C0380
0C0200
1C0300
0C0300
0C0300
0C0300
1C0300
3E0700
FF07E0
FF0F40
790FC0
ENDCHAR
STARTCHAR 006F
ENCODING 111
SWIDTH 600 0
DWIDTH 20 0
BBX 15 16 3 -1
BITMAP
0DA0
3FF0
7DF8
702C
F03C
C01C
C00C
C00E
C00E
A00C
E00C
703C
3018
7DF8
1FE0
0680
ENDCHAR
STARTCHAR 0070
ENCODING 112
SWIDTH 600 0
DWIDTH 20 0
BBX 17 23 1 -7
BITMAP
F1F800
FFE400
FE8600
1F0380
1E0180
1E0080
1A0080
1E0080
1E0080
1C0080
180080
180080
1E0080
1A0380
1F8300
0B8C00
0FFC00
080000
080000
060000
160000
23C000
21C000
ENDCHAR
STARTCHAR 0071
ENCODING 113
SWIDTH 600 0
DWIDTH 20 0
BBX 17 23 2 -8
BITMAP
098000
1FFC00
3A7800
703800
C01800
E00800
400800
C01C00
400800
800800
C00800
E01C00
E02800
303C00
39FC00
09A800
061800
000C00
000C00
000800
000800
007F80
003F80
ENDCHAR
STARTCHAR 0072
ENCODING 114
SWIDTH 570 0
DWIDTH 19 0
BBX 15 16 2 1
BITMAP
C048
FFCC
0336
0702
0606
0200
0600
0600
0600
0600
0800
0600
0700
1FC0
DFE0
F960
ENDCHAR
STARTCHAR 0073
ENCODING 115
SWIDTH 570 0
DWIDTH 19 0
BBX 12 16 4 0
BITMAP
3FE0
6760
81D0
0050
E020
F000
7D00
1FC0
1960
07F0
0030
8070
E070
F070
EA70
FFE0
ENDCHAR
STARTCHAR 0074
ENCODING 116
SWIDTH 600 0
DWIDTH 20 0
BBX 13 20 3 0
BITMAP
0C00
0C00
0C00
0E00
FFE0
ED20
1F00
0C00
0C00
0C00
0C00
0C00
0E00
0E00
0C00
1408
0E08
0F38
07F0
0760
ENDCHAR
STARTCHAR 0075
ENCODING 117
SWIDTH 540 0
DWIDTH 18 0
BBX 17 16 1 0
BITMAP
700800
F83C00
381F00
300C00
300F00
300C00
300400
300400
300C00
380C00
380C00
103F00
103F00
1EBF00
1BEF80
038500
ENDCHAR
STARTCHAR 0076
ENCODING 118
SWIDTH 600 0
DWIDTH 20 0
BBX 16 16 2 1
BITMAP
242F
903F
7018
2008
3008
1C18
0810
0C30
0C50
0E30
0630
0740
0380
0280
01C0
0080
ENDCHAR
STARTCHAR 0077
ENCODING 119
SWIDTH 600 0
DWIDTH 20 0
BBX 18 16 1 1
BITMAP
F9B3C0
306080
488180
00E180
280180
300180
186500
19F700
099200
0B1E00
0E0E00
070E00
070C00
000C00
060C00
030C00
ENDCHAR
STARTCHAR 0078
ENCODING 120
SWIDTH 600 0
DWIDTH 20 0
BBX 18 16 2 0
BITMAP
80BE00
97BF00
7DFE00
1FF800
0DE000
07D800
078000
01C000
03C000
018000
036000
062000
053800
1A2800
781F00
783FC0
ENDCHAR
STARTCHAR 0079
ENCODING 121
SWIDTH 600 0
DWIDTH 20 0
BBX 18 24 2 -8
BITMAP
002900
FFFFC0
FE3FC0
150E00
1C1C00
1C0C00
041C00
07B800
020800
033800
01B800
01E800
01F000
01F000
00F000
00F000
00C000
00C000
014000
010000
3B8000
310000
0F8000
060000
ENDCHAR
STARTCHAR 007A
ENCODING 122
SWIDTH 600 0
DWIDTH 20 0
BBX 15 15 2 0
BITMAP
7BD8
6BD8
4B78
4150
41C0
4310
0300
0B80
0A00
0E0C
0800
080E
180E
6A18
FFFC
ENDCHAR
STARTCHAR 00A0
ENCODING 160
SWIDTH 600 0
DWIDTH 20 0
BBX 0 0 0 0
BITMAP
ENDCHAR
STARTCHAR 00A2
ENCODING 162
SWIDTH 570 0
DWIDTH 19 0
BBX 13 20 3 0
BITMAP
0200
0600
0700
3FE0
3B50
7A30
2718
6710
6600
8600
E600
8600
6600
6208
6608
3E08
1FF0
07C0
0600
0600
ENDCHAR
STARTCHAR 00AD
ENCODING 173
SWIDTH 630 0
DWIDTH 21 0
BBX 12 4 5 7
BITMAP
FFF0
B7F0
ED50
7730
ENDCHAR
STARTCHAR 00D7
ENCODING 215
SWIDTH 0 0
DWIDTH 0 0
BBX 0 0 0 0
BITMAP
ENDCHAR
STARTCHAR 00FD
ENCODING 253
SWIDTH 0 0
DWIDTH 0 0
BBX 0 0 0 0
BITMAP
ENDCHAR
STARTCHAR 0141
ENCODING 321
SWIDTH 0 0
DWIDTH 0 0
BBX 0 0 0 0
BITMAP
ENDCHAR
STARTCHAR 2018
ENCODING 8216
SWIDTH 600 0
DWIDTH 20 0
BBX 5 11 7 10
BITMAP
60
F0
F0
F8
70
F0
60
70
60
60
40
ENDCHAR
STARTCHAR 2019
ENCODING 8217
SWIDTH 600 0
DWIDTH 20 0
BBX 5 11 7 10
BITMAP
60
F0
F0
F8
70
F0
60
70
60
60
40
ENDCHAR
STARTCHAR 201C
ENCODING 8220
SWIDTH 600 0
DWIDTH 20 0
BBX 9 10 5 12
BITMAP
0300
FF00
BF80
F780
FF80
7F00
7B00
7700
4200
4300
ENDCHAR
STARTCHAR 201D
ENCODING 8221
SWIDTH 600 0
DWIDTH 20 0
BBX 9 10 5 12
BITMAP
0300
FF00
BF80
F780
FF80
7F00
7B00
7700
4200
4300
ENDCHAR
ENDFONT
